<svg width="1396" height="1040" viewBox="0 0 1396 1040" fill="none" xmlns="http://www.w3.org/2000/svg">
<g clip-path="url(#clip0_1_2)">
<path d="M0 434C0 431.239 2.23858 429 5 429H45C47.7614 429 50 431.239 50 434V479H5C2.23858 479 0 476.761 0 474V434Z" fill="#48A868"/>
<path d="M100 524C100 526.761 97.7614 529 95 529L55 529C52.2386 529 50 526.761 50 524L50 479L95 479C97.7614 479 100 481.239 100 484L100 524Z" fill="#48A868" fill-opacity="0.3"/>
<path d="M60 -9C60 -11.7614 62.2386 -14 65 -14H131C133.761 -14 136 -11.7614 136 -9V62H65C62.2386 62 60 59.7614 60 57V-9Z" fill="#1D55A3"/>
<path d="M1069 -13C1069 -15.7614 1071.24 -18 1074 -18H1144C1146.76 -18 1149 -15.7614 1149 -13V62H1074C1071.24 62 1069 59.7614 1069 57V-13Z" fill="#6BBAF7"/>
<path d="M1281 49H113.546C105.243 49 98.5204 55.7434 98.5456 64.0454L101.435 1018.16C101.467 1028.55 111.734 1035.82 121.603 1032.58C220.949 999.968 447.058 946 703.5 946C959.105 946 1179.13 999.617 1275.66 1032.26C1285.59 1035.62 1296 1028.3 1296 1017.81V64C1296 55.7157 1289.28 49 1281 49Z" fill="#313539"/>
<path d="M201 151C201 148.239 203.239 146 206 146H231C233.761 146 236 148.239 236 151V181H206C203.239 181 201 178.761 201 176V151Z" fill="#FBCC00"/>
<path d="M271 211C271 213.761 268.761 216 266 216L241 216C238.239 216 236 213.761 236 211L236 181L266 181C268.761 181 271 183.239 271 186L271 211Z" fill="#FBCC00" fill-opacity="0.3"/>
<path d="M1201 70C1201 67.2386 1203.24 65 1206 65H1216C1218.76 65 1221 67.2386 1221 70V85H1206C1203.24 85 1201 82.7614 1201 80V70Z" fill="#27348B"/>
<path d="M1241 100C1241 102.761 1238.76 105 1236 105L1226 105C1223.24 105 1221 102.761 1221 100L1221 85L1236 85C1238.76 85 1241 87.2386 1241 90L1241 100Z" fill="#27348B" fill-opacity="0.3"/>
<path d="M1194 906C1194 904.895 1194.9 904 1196 904H1207C1208.1 904 1209 904.895 1209 906V919H1196C1194.9 919 1194 918.105 1194 917V906Z" fill="#FBCC00"/>
<path d="M1224 932C1224 933.105 1223.1 934 1222 934L1211 934C1209.9 934 1209 933.105 1209 932L1209 919L1222 919C1223.1 919 1224 919.895 1224 921L1224 932Z" fill="#FBCC00" fill-opacity="0.3"/>
<path d="M186 906C186 904.895 186.895 904 188 904H199C200.105 904 201 904.895 201 906V919H188C186.895 919 186 918.105 186 917V906Z" fill="#AEDAFC"/>
<path d="M216 932C216 933.105 215.105 934 214 934L203 934C201.895 934 201 933.105 201 932L201 919L214 919C215.105 919 216 919.895 216 921L216 932Z" fill="#AEDAFC" fill-opacity="0.3"/>
<path d="M1246 462C1246 456.477 1250.48 452 1256 452H1311C1316.52 452 1321 456.477 1321 462V527H1256C1250.48 527 1246 522.523 1246 517V462Z" fill="#F2740D"/>
<path d="M1396 592C1396 597.523 1391.52 602 1386 602L1331 602C1325.48 602 1321 597.523 1321 592L1321 527L1386 527C1391.52 527 1396 531.477 1396 537L1396 592Z" fill="#F2740D" fill-opacity="0.3"/>
<g clip-path="url(#clip1_1_2)">
<path opacity="0.25" fill-rule="evenodd" clip-rule="evenodd" d="M219.027 305C218.46 305 218 305.46 218 306.027V312.091C218 312.658 218.46 313.118 219.027 313.118H284.62C285.187 313.118 285.647 312.658 285.647 312.091V306.027C285.647 305.46 285.187 305 284.62 305H219.027ZM294.792 305C294.225 305 293.765 305.46 293.765 306.027V312.091C293.765 312.658 294.225 313.118 294.792 313.118H317.091C317.658 313.118 318.118 312.658 318.118 312.091V306.027C318.118 305.46 317.658 305 317.091 305H294.792ZM218 360.146C218 359.578 218.46 359.119 219.027 359.119H284.62C285.187 359.119 285.647 359.578 285.647 360.146V366.209C285.647 366.777 285.187 367.236 284.62 367.236H219.027C218.46 367.236 218 366.777 218 366.209V360.146ZM219.027 375.351C218.46 375.351 218 375.811 218 376.378V382.442C218 383.009 218.46 383.469 219.027 383.469H284.62C285.187 383.469 285.647 383.009 285.647 382.442V376.378C285.647 375.811 285.187 375.351 284.62 375.351H219.027ZM218 392.617C218 392.05 218.46 391.59 219.027 391.59H284.62C285.187 391.59 285.647 392.05 285.647 392.617V398.681C285.647 399.248 285.187 399.708 284.62 399.708H219.027C218.46 399.708 218 399.248 218 398.681V392.617ZM219.027 413.235C218.46 413.235 218 413.695 218 414.262V420.326C218 420.893 218.46 421.353 219.027 421.353H344.15C344.717 421.353 345.176 420.893 345.176 420.326V414.262C345.176 413.695 344.717 413.235 344.15 413.235H219.027ZM266.708 430.498C266.708 429.93 267.167 429.471 267.735 429.471H300.857C301.424 429.471 301.884 429.93 301.884 430.498V436.561C301.884 437.129 301.424 437.588 300.857 437.588H267.735C267.167 437.588 266.708 437.129 266.708 436.561V430.498ZM219.027 429.471C218.46 429.471 218 429.93 218 430.498V436.561C218 437.129 218.46 437.588 219.027 437.588H260.267C260.834 437.588 261.294 437.129 261.294 436.561V430.498C261.294 429.93 260.834 429.471 260.267 429.471H219.027ZM218 446.732C218 446.165 218.46 445.705 219.027 445.705H300.855C301.423 445.705 301.882 446.165 301.882 446.732V452.796C301.882 453.363 301.423 453.823 300.855 453.823H219.027C218.46 453.823 218 453.363 218 452.796V446.732ZM308.321 445.705C307.754 445.705 307.294 446.165 307.294 446.732V452.796C307.294 453.363 307.754 453.823 308.321 453.823H390.15C390.717 453.823 391.177 453.363 391.177 452.796V446.732C391.177 446.165 390.717 445.705 390.15 445.705H308.321ZM218 468.377C218 467.81 218.46 467.35 219.027 467.35H252.15C252.717 467.35 253.176 467.81 253.176 468.377V474.441C253.176 475.008 252.717 475.468 252.15 475.468H219.027C218.46 475.468 218 475.008 218 474.441V468.377ZM259.614 467.35C259.047 467.35 258.587 467.81 258.587 468.377V474.441C258.587 475.008 259.047 475.468 259.614 475.468H276.501C277.069 475.468 277.528 475.008 277.528 474.441V468.377C277.528 467.81 277.069 467.35 276.501 467.35H259.614ZM218 484.616C218 484.049 218.46 483.589 219.027 483.589H252.15C252.717 483.589 253.176 484.049 253.176 484.616V490.68C253.176 491.247 252.717 491.707 252.15 491.707H219.027C218.46 491.707 218 491.247 218 490.68V484.616ZM219.027 502.53C218.46 502.53 218 502.989 218 503.557V509.62C218 510.187 218.46 510.647 219.027 510.647H400.973C401.54 510.647 402 510.187 402 509.62V503.557C402 502.989 401.54 502.53 400.973 502.53H219.027ZM218 519.794C218 519.227 218.46 518.767 219.027 518.767H349.561C350.128 518.767 350.588 519.227 350.588 519.794V525.858C350.588 526.425 350.128 526.885 349.561 526.885H219.027C218.46 526.885 218 526.425 218 525.858V519.794ZM219.027 321.236C218.46 321.236 218 321.696 218 322.263V328.327C218 328.894 218.46 329.354 219.027 329.354H387.444C388.011 329.354 388.471 328.894 388.471 328.327V322.263C388.471 321.696 388.011 321.236 387.444 321.236H219.027ZM218 338.499C218 337.932 218.46 337.472 219.027 337.472H260.267C260.834 337.472 261.294 337.932 261.294 338.499V344.563C261.294 345.13 260.834 345.59 260.267 345.59H219.027C218.46 345.59 218 345.13 218 344.563V338.499ZM267.735 337.472C267.167 337.472 266.708 337.932 266.708 338.499V344.563C266.708 345.13 267.167 345.59 267.735 345.59H308.975C309.542 345.59 310.002 345.13 310.002 344.563V338.499C310.002 337.932 309.542 337.472 308.975 337.472H267.735Z" fill="url(#paint0_linear_1_2)"/>
</g>
<g clip-path="url(#clip2_1_2)">
<path opacity="0.25" fill-rule="evenodd" clip-rule="evenodd" d="M1018.03 49C1017.46 49 1017 49.4598 1017 50.0269V56.0907C1017 56.6579 1017.46 57.1177 1018.03 57.1177H1083.62C1084.19 57.1177 1084.65 56.6579 1084.65 56.0907V50.0269C1084.65 49.4598 1084.19 49 1083.62 49H1018.03ZM1093.79 49C1093.22 49 1092.76 49.4598 1092.76 50.0269V56.0907C1092.76 56.6579 1093.22 57.1177 1093.79 57.1177H1116.09C1116.66 57.1177 1117.12 56.6579 1117.12 56.0907V50.0269C1117.12 49.4598 1116.66 49 1116.09 49H1093.79ZM1017 104.146C1017 103.578 1017.46 103.119 1018.03 103.119H1083.62C1084.19 103.119 1084.65 103.578 1084.65 104.146V110.209C1084.65 110.777 1084.19 111.236 1083.62 111.236H1018.03C1017.46 111.236 1017 110.777 1017 110.209V104.146ZM1018.03 119.351C1017.46 119.351 1017 119.811 1017 120.378V126.442C1017 127.009 1017.46 127.469 1018.03 127.469H1083.62C1084.19 127.469 1084.65 127.009 1084.65 126.442V120.378C1084.65 119.811 1084.19 119.351 1083.62 119.351H1018.03ZM1017 136.617C1017 136.05 1017.46 135.59 1018.03 135.59H1083.62C1084.19 135.59 1084.65 136.05 1084.65 136.617V142.681C1084.65 143.248 1084.19 143.708 1083.62 143.708H1018.03C1017.46 143.708 1017 143.248 1017 142.681V136.617ZM1018.03 157.235C1017.46 157.235 1017 157.695 1017 158.262V164.326C1017 164.893 1017.46 165.353 1018.03 165.353H1143.15C1143.72 165.353 1144.18 164.893 1144.18 164.326V158.262C1144.18 157.695 1143.72 157.235 1143.15 157.235H1018.03ZM1065.71 174.498C1065.71 173.93 1066.17 173.471 1066.73 173.471H1099.86C1100.42 173.471 1100.88 173.93 1100.88 174.498V180.561C1100.88 181.129 1100.42 181.588 1099.86 181.588H1066.73C1066.17 181.588 1065.71 181.129 1065.71 180.561V174.498ZM1018.03 173.471C1017.46 173.471 1017 173.93 1017 174.498V180.561C1017 181.129 1017.46 181.588 1018.03 181.588H1059.27C1059.83 181.588 1060.29 181.129 1060.29 180.561V174.498C1060.29 173.93 1059.83 173.471 1059.27 173.471H1018.03ZM1017 190.732C1017 190.165 1017.46 189.705 1018.03 189.705H1099.86C1100.42 189.705 1100.88 190.165 1100.88 190.732V196.796C1100.88 197.363 1100.42 197.823 1099.86 197.823H1018.03C1017.46 197.823 1017 197.363 1017 196.796V190.732ZM1107.32 189.705C1106.75 189.705 1106.29 190.165 1106.29 190.732V196.796C1106.29 197.363 1106.75 197.823 1107.32 197.823H1189.15C1189.72 197.823 1190.18 197.363 1190.18 196.796V190.732C1190.18 190.165 1189.72 189.705 1189.15 189.705H1107.32ZM1017 212.377C1017 211.81 1017.46 211.35 1018.03 211.35H1051.15C1051.72 211.35 1052.18 211.81 1052.18 212.377V218.441C1052.18 219.008 1051.72 219.468 1051.15 219.468H1018.03C1017.46 219.468 1017 219.008 1017 218.441V212.377ZM1058.61 211.35C1058.05 211.35 1057.59 211.81 1057.59 212.377V218.441C1057.59 219.008 1058.05 219.468 1058.61 219.468H1075.5C1076.07 219.468 1076.53 219.008 1076.53 218.441V212.377C1076.53 211.81 1076.07 211.35 1075.5 211.35H1058.61ZM1017 228.616C1017 228.049 1017.46 227.589 1018.03 227.589H1051.15C1051.72 227.589 1052.18 228.049 1052.18 228.616V234.68C1052.18 235.247 1051.72 235.707 1051.15 235.707H1018.03C1017.46 235.707 1017 235.247 1017 234.68V228.616ZM1018.03 246.53C1017.46 246.53 1017 246.989 1017 247.557V253.62C1017 254.187 1017.46 254.647 1018.03 254.647H1199.97C1200.54 254.647 1201 254.187 1201 253.62V247.557C1201 246.989 1200.54 246.53 1199.97 246.53H1018.03ZM1017 263.794C1017 263.227 1017.46 262.767 1018.03 262.767H1148.56C1149.13 262.767 1149.59 263.227 1149.59 263.794V269.858C1149.59 270.425 1149.13 270.885 1148.56 270.885H1018.03C1017.46 270.885 1017 270.425 1017 269.858V263.794ZM1018.03 65.236C1017.46 65.236 1017 65.6958 1017 66.2629V72.3267C1017 72.8939 1017.46 73.3537 1018.03 73.3537H1186.44C1187.01 73.3537 1187.47 72.8939 1187.47 72.3267V66.2629C1187.47 65.6958 1187.01 65.236 1186.44 65.236H1018.03ZM1017 82.4992C1017 81.9321 1017.46 81.4723 1018.03 81.4723H1059.27C1059.83 81.4723 1060.29 81.9321 1060.29 82.4992V88.563C1060.29 89.1302 1059.83 89.5899 1059.27 89.5899H1018.03C1017.46 89.5899 1017 89.1302 1017 88.563V82.4992ZM1066.73 81.4723C1066.17 81.4723 1065.71 81.9321 1065.71 82.4992V88.563C1065.71 89.1302 1066.17 89.5899 1066.73 89.5899H1107.97C1108.54 89.5899 1109 89.1302 1109 88.563V82.4992C1109 81.9321 1108.54 81.4723 1107.97 81.4723H1066.73Z" fill="url(#paint1_linear_1_2)"/>
</g>
</g>
<defs>
<linearGradient id="paint0_linear_1_2" x1="130.903" y1="279.274" x2="474.094" y2="346.854" gradientUnits="userSpaceOnUse">
<stop stop-color="#2E3235"/>
<stop offset="0.25" stop-color="#5A6771"/>
<stop offset="1" stop-color="#2E3235"/>
</linearGradient>
<linearGradient id="paint1_linear_1_2" x1="929.903" y1="23.2742" x2="1273.09" y2="90.854" gradientUnits="userSpaceOnUse">
<stop stop-color="#2E3235"/>
<stop offset="0.25" stop-color="#5A6771"/>
<stop offset="1" stop-color="#2E3235"/>
</linearGradient>
<clipPath id="clip0_1_2">
<rect width="1396" height="1040" fill="white"/>
</clipPath>
<clipPath id="clip1_1_2">
<rect width="184" height="222" fill="white" transform="translate(218 305)"/>
</clipPath>
<clipPath id="clip2_1_2">
<rect width="184" height="222" fill="white" transform="translate(1017 49)"/>
</clipPath>
</defs>
</svg>
